<svg xmlns="http://www.w3.org/2000/svg" viewBox="0 0 390 844" font-family="-apple-system, Segoe UI, Roboto, sans-serif">
  <defs>
    <linearGradient id="gh" x1="0" y1="0" x2="1" y2="1">
      <stop offset="0" stop-color="#7C3AED"/><stop offset="1" stop-color="#8B5CF6"/>
    </linearGradient>
    <clipPath id="scr"><rect x="0" y="0" width="390" height="844" rx="44"/></clipPath>
  </defs>
  <g clip-path="url(#scr)">
    <rect width="390" height="844" fill="#F3F4F6"/>
    <rect x="0" y="44" width="390" height="44" fill="#7C3AED"/>
    <text x="350" y="72" text-anchor="end" fill="#fff" font-size="14" font-weight="600">9:41</text>

    <path d="M0,88 H390 V178 a0 0 0 0 1 0 0 a150 70 0 0 1 -195 -5 L0,88 Z" fill="url(#gh)"/>
    <text x="24" y="128" fill="#fff" font-size="22" font-weight="700">Sudah Clock In!</text>
    <text x="24" y="152" fill="#fff" opacity="0.9" font-size="13">Jangan lupa clock out sebelum pulang</text>
    <g transform="translate(344,138)" fill="none" stroke="#fff" stroke-width="2" stroke-linecap="round"><circle cx="0" cy="0" r="22"/><circle cx="0" cy="0" r="1.5" fill="#fff" stroke="none"/><path d="M0 -14 v4 M0 10 v4 M14 0 h-4 M-10 0 h4 M10 -10 l-3 3 M-10 10 l3 -3 M10 10 l-3 -3 M-10 -10 l3 3"/></g>

    <rect x="20" y="185" width="350" height="170" rx="18" fill="#fff"/>
    <text x="38" y="215" fill="#111827" font-size="16" font-weight="700">Total Working Hour</text>
    <text x="38" y="234" fill="#6b7280" font-size="12">Hari Ini</text>
    <rect x="36" y="250" width="155" height="80" rx="12" fill="#fafafa" stroke="#f3f4f6"/>
    <g transform="translate(50,275)" fill="none" stroke="#9CA3AF" stroke-width="2" stroke-linecap="round"><circle cx="6" cy="6" r="6"/><path d="M6 3 v3 l2 2"/></g>
    <text x="83" y="278" fill="#9CA3AF" font-size="12">Today</text>
    <text x="58" y="316" fill="#111827" font-size="17" font-weight="600">05:20 Hrs</text>
    <rect x="200" y="250" width="155" height="80" rx="12" fill="#fafafa" stroke="#f3f4f6"/>
    <g transform="translate(214,275)" fill="none" stroke="#9CA3AF" stroke-width="2" stroke-linecap="round"><circle cx="6" cy="6" r="6"/><path d="M6 3 v3 l2 2"/></g>
    <text x="247" y="278" fill="#9CA3AF" font-size="12">Clock In</text>
    <text x="222" y="316" fill="#111827" font-size="17" font-weight="600">07:55</text>

    <rect x="20" y="321" width="350" height="48" rx="24" fill="#1E1E1E"/>
    <g transform="translate(36,345)" fill="none" stroke="#fff" stroke-width="2" stroke-linecap="round" stroke-linejoin="round"><path d="M0 -7 V0 h7 M-9 0 a9 9 0 1 0 9 -9"/></g>
    <text x="195" y="350" text-anchor="middle" fill="#fff" font-size="15" font-weight="700">Clock Out</text>

    <text x="24" y="385" fill="#111827" font-size="16" font-weight="700">Riwayat Kehadiran</text>
    <g transform="translate(350,380)" fill="none" stroke="#8B5CF6" stroke-width="2" stroke-linejoin="round"><rect x="-9" y="-9" width="18" height="18" rx="3"/><line x1="-5" y1="-13" x2="-5" y2="-7"/><line x1="5" y1="-13" x2="5" y2="-7"/><line x1="-9" y1="-3" x2="9" y2="-3"/></g>

    <g transform="translate(20,400)">
      <rect width="350" height="92" rx="14" fill="#fff"/>
      <g fill="none" stroke="#8B5CF6" stroke-width="2" stroke-linejoin="round"><rect transform="translate(22,22)" x="-8" y="-8" width="16" height="16" rx="2"/><line x1="14" y1="14" x2="30" y2="14"/><line x1="18" y1="10" x2="18" y2="16"/><line x1="26" y1="10" x2="26" y2="16"/></g>
      <text x="48" y="18" fill="#111827" font-size="14" font-weight="600">Kamis, 7 Mei 2026</text>
      <rect x="240" y="8" width="58" height="20" rx="10" fill="#D1FAE5"/>
      <text x="269" y="22" text-anchor="middle" fill="#065F46" font-size="11" font-weight="600">Aktif</text>
      <rect x="22" y="42" width="306" height="38" rx="10" fill="#fafafa" stroke="#f3f4f6"/>
      <text x="38" y="58" fill="#6b7280" font-size="11">Total Hours</text>
      <text x="38" y="74" fill="#374151" font-size="13" font-weight="500">05:20 Hrs</text>
      <text x="190" y="58" fill="#6b7280" font-size="11">Clock In & Out</text>
      <text x="190" y="74" fill="#374151" font-size="13" font-weight="500">07:55 — --:--</text>
    </g>

    <g transform="translate(20,502)">
      <rect width="350" height="92" rx="14" fill="#fff"/>
      <g fill="none" stroke="#8B5CF6" stroke-width="2" stroke-linejoin="round"><rect transform="translate(22,22)" x="-8" y="-8" width="16" height="16" rx="2"/><line x1="14" y1="14" x2="30" y2="14"/><line x1="18" y1="10" x2="18" y2="16"/><line x1="26" y1="10" x2="26" y2="16"/></g>
      <text x="48" y="18" fill="#111827" font-size="14" font-weight="600">Rabu, 6 Mei 2026</text>
      <rect x="232" y="8" width="66" height="20" rx="10" fill="#D1FAE5"/>
      <text x="265" y="22" text-anchor="middle" fill="#065F46" font-size="11" font-weight="600">Aktif</text>
      <rect x="22" y="42" width="306" height="38" rx="10" fill="#fafafa" stroke="#f3f4f6"/>
      <text x="38" y="58" fill="#6b7280" font-size="11">Total Hours</text>
      <text x="38" y="74" fill="#374151" font-size="13" font-weight="500">09:10 Hrs</text>
      <text x="190" y="58" fill="#6b7280" font-size="11">Clock In & Out</text>
      <text x="190" y="74" fill="#374151" font-size="13" font-weight="500">07:48 — 17:05</text>
    </g>

    <g transform="translate(20,604)">
      <rect width="350" height="92" rx="14" fill="#fff"/>
      <g fill="none" stroke="#8B5CF6" stroke-width="2" stroke-linejoin="round"><rect transform="translate(22,22)" x="-8" y="-8" width="16" height="16" rx="2"/><line x1="14" y1="14" x2="30" y2="14"/><line x1="18" y1="10" x2="18" y2="16"/><line x1="26" y1="10" x2="26" y2="16"/></g>
      <text x="48" y="18" fill="#111827" font-size="14" font-weight="600">Selasa, 5 Mei 2026</text>
      <rect x="226" y="6" width="72" height="20" rx="10" fill="#FEF3C7"/>
      <text x="262" y="20" text-anchor="middle" fill="#92400E" font-size="11" font-weight="600">Terlambat</text>
      <rect x="22" y="42" width="306" height="38" rx="10" fill="#fafafa" stroke="#f3f4f6"/>
      <text x="38" y="58" fill="#6b7280" font-size="11">Total Hours</text>
      <text x="38" y="74" fill="#374151" font-size="13" font-weight="500">08:20 Hrs</text>
      <text x="190" y="58" fill="#6b7280" font-size="11">Clock In & Out</text>
      <text x="190" y="74" fill="#374151" font-size="13" font-weight="500">08:15 — 17:02</text>
    </g>

    <rect x="0" y="744" width="390" height="70" fill="#1E1E1E"/>
    <g font-size="10" text-anchor="middle">
      <g transform="translate(50,766)" fill="none" stroke="#A3A3A3" stroke-width="2" stroke-linejoin="round"><path d="M-7 -3 h14 v10 h-5 v-4 h-4 v4 h-5 z"/></g>
      <g transform="translate(128,766)"><rect x="-9" y="-9" width="18" height="18" rx="2" fill="none" stroke="#fff" stroke-width="2"/><line x1="-9" y1="-3" x2="9" y2="-3" stroke="#fff" stroke-width="2"/><line x1="-5" y1="-13" x2="-5" y2="-7" stroke="#fff" stroke-width="2"/><line x1="5" y1="-13" x2="5" y2="-7" stroke="#fff" stroke-width="2"/><text y="30" fill="#fff">Attendance</text><rect x="-10" y="34" width="20" height="3" rx="1.5" fill="#fff"/></g>
      <g transform="translate(206,766)" fill="none" stroke="#A3A3A3" stroke-width="2" stroke-linejoin="round"><path d="M-10 4 h-2 l3 -8 h14 l3 8 h-2 v8 h-16 z M-7 4 a7 4 0 0 0 14 0"/></g>
      <g transform="translate(284,766)" fill="none" stroke="#A3A3A3" stroke-width="2" stroke-linejoin="round" stroke-linecap="round"><path d="M-9 -9 h7 l2 2 h9 v14 h-18 z M-9 -4 h18"/></g>
      <g transform="translate(362,766)" fill="none" stroke="#A3A3A3" stroke-width="2" stroke-linejoin="round"><circle cx="0" cy="-3" r="5"/><path d="M-8 9 c0 -5 16 -5 16 0"/></g>
    </g>
  </g>
  <rect x="128" y="816" width="134" height="5" rx="3" fill="#191c1f"/>
</svg>