<svg xmlns="http://www.w3.org/2000/svg" viewBox="0 0 390 844" font-family="-apple-system, Segoe UI, Roboto, sans-serif">
  <defs><clipPath id="scr"><rect x="0" y="0" width="390" height="844" rx="44"/></clipPath></defs>
  <g clip-path="url(#scr)">
    <rect width="390" height="844" fill="#F3F4F6"/>
    <path d="M0,44 H390 V138 a0 0 0 0 1 0 0 a130 50 0 0 1 -195 0 L0,138 Z" fill="#8B5CF6"/>
    <text x="350" y="72" text-anchor="end" fill="#fff" font-size="14" font-weight="600">9:41</text>
    <g transform="translate(24,86)" fill="none" stroke="#fff" stroke-width="2" stroke-linecap="round" stroke-linejoin="round"><path d="M-6 -8 l-6 8 6 8" transform="rotate(180 0 0)"/><line x1="-6" y1="0" x2="6" y2="0"/></g>
    <text x="195" y="94" text-anchor="middle" fill="#fff" font-size="18" font-weight="700">My Profile</text>
    <g transform="translate(366,86)" fill="none" stroke="#fff" stroke-width="2" stroke-linecap="round" stroke-linejoin="round"><path d="M-9 -6 v14 a4 4 0 0 0 4 4 h10 a4 4 0 0 0 4 -4 V-6 a4 4 0 0 0 -4 -4 h-10 a4 4 0 0 0 -4 4 z M-4 -4 V-7 a4 4 0 0 1 8 0 V-4"/></g>

    <circle cx="195" cy="148" r="44" fill="#EDEBFE" stroke="#fff" stroke-width="4"/>
    <g transform="translate(195,148)" fill="none" stroke="#8B5CF6" stroke-width="2" stroke-linejoin="round"><circle cx="0" cy="-8" r="10"/><path d="M-16 14 c0 -10 32 -10 32 0"/></g>
    <text x="178" y="208" fill="#111827" font-size="20" font-weight="700">Aditia Pratama</text>
    <circle cx="310" cy="202" r="9" fill="#3B82F6"/>
    <text x="310" y="206" text-anchor="middle" fill="#fff" font-size="11" font-weight="700">&#10003;</text>
    <text x="195" y="232" text-anchor="middle" fill="#6b7280" font-size="14">Senior Developer</text>
    <text x="195" y="252" text-anchor="middle" fill="#6b7280" font-size="14">Engineering</text>

    <text x="24" y="298" fill="#6b7280" font-size="11" font-weight="700" letter-spacing="1">CONTACT</text>
    <rect x="20" y="310" width="350" height="120" rx="12" fill="#fff"/>
    <g transform="translate(40,344)" fill="none" stroke="#8B5CF6" stroke-width="2" stroke-linecap="round" stroke-linejoin="round"><rect x="-9" y="-7" width="18" height="14" rx="3"/><path d="M-9 -3 l9 5 9 -5"/></g>
    <text x="64" y="348" fill="#374151" font-size="14">aditia.pratama@cloudhris.id</text>
    <line x1="40" y1="370" x2="350" y2="370" stroke="#F3F4F6"/>
    <g transform="translate(40,404)" fill="none" stroke="#8B5CF6" stroke-width="2" stroke-linecap="round" stroke-linejoin="round"><path d="M-9 -3 a3 3 0 0 1 3 -3 h4 a3 3 0 0 1 0 6 h-4 a3 3 0 0 0 0 6 h4 a3 3 0 0 1 0 6"/><path d="M5 -3 h2 a3 3 0 0 1 0 6 h-4 M-7 12 h14"/></g>
    <text x="64" y="408" fill="#374151" font-size="14">+62 812-3456-7890</text>

    <text x="24" y="464" fill="#6b7280" font-size="11" font-weight="700" letter-spacing="1">EMPLOYMENT</text>
    <rect x="20" y="476" width="350" height="156" rx="12" fill="#fff"/>
    <g transform="translate(40,510)" fill="none" stroke="#8B5CF6" stroke-width="2" stroke-linecap="round" stroke-linejoin="round"><rect x="-10" y="-3 h20 v14 h-20 z M-7 0 h14 M-7 5 h14"/></g>
    <text x="64" y="514" fill="#374151" font-size="14">Engineering</text>
    <line x1="40" y1="536" x2="350" y2="536" stroke="#F3F4F6"/>
    <g transform="translate(40,570)" fill="none" stroke="#8B5CF6" stroke-width="2" stroke-linejoin="round"><rect x="-9" y="-6" width="18" height="14" rx="2" transform="rotate(45 0 1)"/><line x1="-5" y1="-2" x2="5" y2="-2"/></g>
    <text x="64" y="570" fill="#374151" font-size="14">Senior Developer</text>
    <line x1="40" y1="592" x2="350" y2="592" stroke="#F3F4F6"/>
    <g transform="translate(40,624)" fill="none" stroke="#8B5CF6" stroke-width="2" stroke-linejoin="round"><rect x="-9" y="-8" width="18" height="18" rx="2"/><line x1="-5" y1="-13" x2="-5" y2="-7"/><line x1="5" y1="-13" x2="5" y2="-7"/><line x1="-9" y1="-3" x2="9" y2="-3"/></g>
    <text x="64" y="628" fill="#374151" font-size="14">Kontrak s/d 15 Jun 2028</text>

    <rect x="20" y="656" width="350" height="50" rx="25" fill="#FEF2F2"/>
    <g transform="translate(160,681)" fill="none" stroke="#EF4444" stroke-width="2" stroke-linecap="round" stroke-linejoin="round"><path d="M-9 -6 v14 a4 4 0 0 0 4 4 h10 a4 4 0 0 0 4 -4 V-6 a4 4 0 0 0 -4 -4 h-10 a4 4 0 0 0 -4 4 z M-4 -4 V-7 a4 4 0 0 1 8 0 V-4 M-2 2 h4"/></g>
    <text x="200" y="686" fill="#EF4444" font-size="15" font-weight="600">Keluar</text>

    <rect x="0" y="744" width="390" height="70" fill="#1E1E1E"/>
    <g font-size="10" text-anchor="middle" fill="#A3A3A3">
      <g transform="translate(50,766)" fill="none" stroke="#A3A3A3" stroke-width="2" stroke-linejoin="round"><path d="M-7 -3 h14 v10 h-5 v-4 h-4 v4 h-5 z"/></g>
      <g transform="translate(128,766)" fill="none" stroke="#A3A3A3" stroke-width="2" stroke-linejoin="round"><rect x="-9" y="-9" width="18" height="18" rx="2"/><line x1="-9" y1="-3" x2="9" y2="-3"/><line x1="-5" y1="-13" x2="-5" y2="-7"/><line x1="5" y1="-13" x2="5" y2="-7"/></g>
      <g transform="translate(206,766)" fill="none" stroke="#A3A3A3" stroke-width="2" stroke-linejoin="round"><path d="M-10 4 h-2 l3 -8 h14 l3 8 h-2 v8 h-16 z M-7 4 a7 4 0 0 0 14 0"/></g>
      <g transform="translate(284,766)" fill="none" stroke="#A3A3A3" stroke-width="2" stroke-linejoin="round" stroke-linecap="round"><path d="M-9 -9 h7 l2 2 h9 v14 h-18 z M-9 -4 h18"/></g>
      <g transform="translate(362,766)" fill="#fff" stroke="#fff" stroke-width="2" stroke-linejoin="round"><circle cx="0" cy="-3" r="6"/><path d="M-10 11 c0 -7 20 -7 20 0"/><text y="30">Profile</text></g>
      <rect x="352" y="800" width="20" height="3" rx="1.5" fill="#fff"/>
    </g>
  </g>
  <rect x="128" y="816" width="134" height="5" rx="3" fill="#191c1f"/>
</svg>