<svg xmlns="http://www.w3.org/2000/svg" viewBox="0 0 1440 900" font-family="-apple-system, Segoe UI, Roboto, sans-serif">
  <defs><linearGradient id="sb" x1="0" y1="0" x2="0" y2="1"><stop offset="0" stop-color="#4937bf"/><stop offset="1" stop-color="#31238c"/></linearGradient></defs>
  <rect width="1440" height="900" fill="#f6f8ff"/>
  <rect x="0" y="0" width="260" height="900" fill="url(#sb)"/>
  <rect x="14" y="14" width="36" height="36" rx="8" fill="#ffffff2e"/><text x="32" y="38" text-anchor="middle" fill="#fff" font-size="18" font-weight="700">H</text>
  <text x="60" y="34" fill="#fff" font-size="16" font-weight="700">Cloud HRIS</text><text x="60" y="50" fill="#ffffffa6" font-size="11">Workspace Console</text>
  <rect x="250" y="22" width="34" height="34" rx="8" fill="#ffffff1a" stroke="#ffffff38"/><text x="267" y="44" text-anchor="middle" fill="#ffffffd9" font-size="18">‹</text>
  <text x="18" y="84" fill="#ffffff73" font-size="10" letter-spacing="1" font-weight="700">MAIN MENU</text>
  <g font-size="13" font-weight="500" fill="#ffffffb8"><text x="26" y="121">Dashboard</text><text x="26" y="158">Karyawan</text><text x="26" y="194">Absensi</text><text x="26" y="230">Cuti &amp; Izin</text><text x="26" y="266">Payroll</text><text x="26" y="302">Slip Gaji</text><text x="26" y="338">Laporan</text><text x="26" y="374">Master Data</text><text x="26" y="410">Role Management</text></g>
  <rect x="14" y="98" width="232" height="36" rx="8" fill="#ffffff29"/><text x="26" y="121" fill="#b8b8ff" font-size="13" font-weight="500">Dashboard</text>
  <rect x="14" y="134" width="232" height="36" rx="8" fill="#ffffff29"/><text x="26" y="157" fill="#fff" font-size="13" font-weight="600">Karyawan</text>
  <rect x="14" y="838" width="232" height="52" rx="10" fill="#ffffff14"/><rect x="22" y="850" width="34" height="34" rx="8" fill="#ffffff33"/><text x="39" y="872" text-anchor="middle" fill="#fff" font-size="14" font-weight="700">R</text><text x="64" y="864" fill="#fff" font-size="13" font-weight="600">Rani Amelia</text><text x="64" y="880" fill="#ffffffa6" font-size="11">HRD</text><rect x="208" y="858" width="38" height="22" rx="6" fill="#ffffff24"/><text x="227" y="873" text-anchor="middle" fill="#fff" font-size="11">Logout</text>

  <rect x="286" y="26" width="1128" height="76" rx="16" fill="#fff" filter="drop-shadow(0 10px 30px rgba(31,49,113,0.08))"/>
  <text x="306" y="58" fill="#6874a8" font-size="12" letter-spacing="1" font-weight="700">KARYAWAN</text>
  <text x="306" y="82" fill="#1d2340" font-size="20" font-weight="700">Human Resource Information System (HRIS) Terpadu Berbasis Cloud</text>

  <rect x="286" y="126" width="1128" height="80" rx="16" fill="#fff" filter="drop-shadow(0 8px 24px rgba(31,49,113,0.06))"/>
  <text x="306" y="174" fill="#1d2340" font-size="16" font-weight="700">Manajemen Karyawan</text>
  <rect x="660" y="146" width="280" height="40" rx="8" fill="#fff" stroke="#d1d5db"/>
  <text x="676" y="170" fill="#9ca3af" font-size="13">Cari nama, departemen, jabatan...</text>
  <rect x="956" y="146" width="110" height="40" rx="8" fill="#fff" stroke="#d1d5db"/><text x="1011" y="170" text-anchor="middle" fill="#1d2340" font-size="13" font-weight="500">📥 Import CSV</text>
  <rect x="1080" y="146" width="160" height="40" rx="8" fill="#4b3ac3"/><text x="1160" y="170" text-anchor="middle" fill="#fff" font-size="13" font-weight="600">+ Tambah Karyawan</text>

  <rect x="286" y="226" width="1128" height="510" rx="16" fill="#fff" filter="drop-shadow(0 8px 24px rgba(31,49,113,0.06))"/>
  <g font-size="11" letter-spacing="1" font-weight="700" fill="#6874a8"><text x="306" y="262">NAMA</text><text x="490" y="262">NIK</text><text x="600" y="262">PASSWORD</text><text x="730" y="262">DEPARTEMEN</text><text x="850" y="262">JABATAN</text><text x="990" y="262">GAJI POKOK</text><text x="1150" y="262">AKHIR KONTRAK</text><text x="1290" y="262">STATUS</text><text x="1360" y="262">AKSI</text></g>
  <line x1="306" y1="274" x2="1390" y2="274" stroke="#edf0fb"/>
  <g font-size="13" fill="#1d2340">
    <text x="306" y="300" font-weight="600">Aditia Pratama</text><text x="306" y="316" font-size="12" fill="#4b5563">aditia@company.id</text>
    <text x="490" y="308" font-size="12" fill="#3730a3" font-family="ui-monospace,Consolas,monospace">EMP001</text>
    <text x="600" y="308" font-size="12" fill="#3730a3" font-family="ui-monospace,Consolas,monospace">admin123</text>
    <text x="730" y="308">Engineering</text><text x="850" y="308">Senior Developer</text><text x="990" y="308" font-weight="600">Rp 15.000.000</text>
    <text x="1150" y="300">2028-06-15</text><rect x="1150" y="306" width="40" height="18" rx="6" fill="#d1fae5"/><text x="1170" y="319" text-anchor="middle" fill="#065f46" font-size="10" font-weight="600">Aktif</text>
    <rect x="1290" y="296" width="44" height="20" rx="10" fill="#d1fae5"/><text x="1312" y="310" text-anchor="middle" fill="#065f46" font-size="11" font-weight="600">Aktif</text>
    <rect x="1360" y="292" width="40" height="22" rx="6" fill="#eef2ff"/><text x="1380" y="307" text-anchor="middle" fill="#3730a3" font-size="11" font-weight="600">Edit</text>
  </g>
  <line x1="306" y1="324" x2="1390" y2="324" stroke="#edf0fb"/>
  <g font-size="13" fill="#1d2340">
    <text x="306" y="350" font-weight="600">Nadia Putri</text><text x="306" y="366" font-size="12" fill="#4b5563">nadia@company.id</text>
    <text x="490" y="358" font-size="12" fill="#3730a3" font-family="ui-monospace,Consolas,monospace">EMP002</text>
    <text x="600" y="358" font-size="12" fill="#3730a3" font-family="ui-monospace,Consolas,monospace">admin123</text>
    <text x="730" y="358">HRD</text><text x="850" y="358">HR Manager</text><text x="990" y="358" font-weight="600">Rp 12.000.000</text>
    <text x="1150" y="350">2027-03-20</text><rect x="1150" y="356" width="40" height="18" rx="6" fill="#d1fae5"/><text x="1170" y="369" text-anchor="middle" fill="#065f46" font-size="10" font-weight="600">Aktif</text>
    <rect x="1290" y="346" width="44" height="20" rx="10" fill="#d1fae5"/><text x="1312" y="360" text-anchor="middle" fill="#065f46" font-size="11" font-weight="600">Aktif</text>
  </g>
  <line x1="306" y1="374" x2="1390" y2="374" stroke="#edf0fb"/>
  <g font-size="13" fill="#1d2340">
    <text x="306" y="400" font-weight="600">Rizky Maulana</text><text x="306" y="416" font-size="12" fill="#4b5563">rizky@company.id</text>
    <text x="490" y="408" font-size="12" fill="#3730a3" font-family="ui-monospace,Consolas,monospace">EMP003</text>
    <text x="600" y="408" font-size="12" fill="#3730a3" font-family="ui-monospace,Consolas,monospace">admin123</text>
    <text x="730" y="408">Finance</text><text x="850" y="408">Finance Lead</text><text x="990" y="408" font-weight="600">Rp 13.500.000</text>
    <text x="1150" y="400">2027-11-10</text><rect x="1150" y="406" width="40" height="18" rx="6" fill="#d1fae5"/><text x="1170" y="419" text-anchor="middle" fill="#065f46" font-size="10" font-weight="600">Aktif</text>
    <rect x="1290" y="396" width="44" height="20" rx="10" fill="#d1fae5"/><text x="1312" y="410" text-anchor="middle" fill="#065f46" font-size="11" font-weight="600">Aktif</text>
  </g>
  <line x1="306" y1="424" x2="1390" y2="424" stroke="#edf0fb"/>
  <g font-size="13" fill="#1d2340">
    <text x="306" y="450" font-weight="600">Salsa Wijaya</text><text x="306" y="466" font-size="12" fill="#4b5563">salsa@company.id</text>
    <text x="490" y="458" font-size="12" fill="#3730a3" font-family="ui-monospace,Consolas,monospace">EMP004</text>
    <text x="600" y="458" font-size="12" fill="#3730a3" font-family="ui-monospace,Consolas,monospace">admin123</text>
    <text x="730" y="458">Marketing</text><text x="850" y="458">Marketing Specialist</text><text x="990" y="458" font-weight="600">Rp 9.800.000</text>
    <text x="1150" y="450">2026-06-30</text><rect x="1150" y="456" width="50" height="18" rx="6" fill="#fff8e1"/><text x="1175" y="469" text-anchor="middle" fill="#92400e" font-size="10" font-weight="600">25 hari</text>
    <rect x="1290" y="446" width="44" height="20" rx="10" fill="#d1fae5"/><text x="1312" y="460" text-anchor="middle" fill="#065f46" font-size="11" font-weight="600">Aktif</text>
  </g>
  <line x1="306" y1="474" x2="1390" y2="474" stroke="#edf0fb"/>
  <g font-size="13" fill="#1d2340">
    <text x="306" y="500" font-weight="600">Budi Santoso</text><text x="306" y="516" font-size="12" fill="#4b5563">budi@company.id</text>
    <text x="490" y="508" font-size="12" fill="#3730a3" font-family="ui-monospace,Consolas,monospace">EMP005</text>
    <text x="600" y="508" font-size="12" fill="#3730a3" font-family="ui-monospace,Consolas,monospace">admin123</text>
    <text x="730" y="508">Operations</text><text x="850" y="508">Ops Manager</text><text x="990" y="508" font-weight="600">Rp 11.200.000</text>
    <text x="1150" y="500">2025-04-15</text><rect x="1148" y="506" width="56" height="18" rx="6" fill="#fee2e2"/><text x="1176" y="519" text-anchor="middle" fill="#991b1b" font-size="10" font-weight="600">Berakhir</text>
    <rect x="1284" y="496" width="56" height="20" rx="10" fill="#fee2e2"/><text x="1312" y="510" text-anchor="middle" fill="#991b1b" font-size="11" font-weight="600">Nonaktif</text>
  </g>
</svg>